<svg width="33" height="33" viewBox="0 0 33 33" fill="none" xmlns="http://www.w3.org/2000/svg">
<circle cx="16.8284" cy="16.1772" r="15" fill="white" stroke="#FE5F1E" stroke-width="2"/>
<path d="M20.6686 15.2172H17.7886V12.3372C17.7886 11.807 17.3587 11.3772 16.8286 11.3772C16.2984 11.3772 15.8686 11.807 15.8686 12.3372V15.2172H12.9886C12.4584 15.2172 12.0286 15.647 12.0286 16.1772C12.0286 16.7074 12.4584 17.1372 12.9886 17.1372H15.8686V20.0172C15.8686 20.5474 16.2984 20.9772 16.8286 20.9772C17.3587 20.9772 17.7886 20.5474 17.7886 20.0172V17.1372H20.6686C21.1987 17.1372 21.6286 16.7074 21.6286 16.1772C21.6286 15.647 21.1987 15.2172 20.6686 15.2172Z" fill="#EB5A1E"/>
</svg>
