<svg width="33" height="33" viewBox="0 0 33 33" fill="none" xmlns="http://www.w3.org/2000/svg">
<circle cx="16.4307" cy="16.9747" r="15" fill="white" stroke="#D7D7D7" stroke-width="2"/>
<path d="M20.1786 18.9305L17.93 16.6819L20.1786 14.4333C20.5925 14.0193 20.5925 13.3481 20.1786 12.9342C19.7646 12.5203 19.0934 12.5203 18.6795 12.9342L16.4309 15.1828L14.1823 12.9342C13.7684 12.5203 13.0972 12.5203 12.6832 12.9342C12.2693 13.3481 12.2693 14.0193 12.6832 14.4333L14.9318 16.6819L12.6832 18.9305C12.2693 19.3444 12.2693 20.0156 12.6832 20.4295C13.0972 20.8435 13.7684 20.8435 14.1823 20.4295L16.4309 18.1809L18.6795 20.4295C19.0934 20.8435 19.7646 20.8435 20.1786 20.4295C20.5925 20.0156 20.5925 19.3444 20.1786 18.9305Z" fill="#D0D0D0"/>
</svg>
