<svg width="20" height="21" viewBox="0 0 18 17" fill="none" xmlns="http://www.w3.org/2000/svg">
    <path d="M6.53145 15.8967C7.26783 15.8967 7.86479 15.2997 7.86479 14.5634C7.86479 13.827 7.26783 13.23 6.53145 13.23C5.79507 13.23 5.19812 13.827 5.19812 14.5634C5.19812 15.2997 5.79507 15.8967 6.53145 15.8967Z"
          stroke="white" stroke-width="1.8" stroke-linecap="round" stroke-linejoin="round"/>
    <path d="M14.5315 15.8967C15.2678 15.8967 15.8648 15.2997 15.8648 14.5634C15.8648 13.827 15.2678 13.23 14.5315 13.23C13.7951 13.23 13.1981 13.827 13.1981 14.5634C13.1981 15.2997 13.7951 15.8967 14.5315 15.8967Z"
          stroke="white" stroke-width="1.8" stroke-linecap="round" stroke-linejoin="round"/>
    <path d="M4.97808 4.56336H16.5314L15.4114 10.1567C15.3504 10.4636 15.1835 10.7393 14.9397 10.9356C14.696 11.1318 14.3909 11.236 14.0781 11.23H7.03141C6.70587 11.2328 6.39056 11.1163 6.14495 10.9027C5.89934 10.689 5.74039 10.3928 5.69808 10.07L4.68475 2.39003C4.64272 2.06952 4.4857 1.77519 4.24288 1.5618C4.00006 1.34842 3.688 1.23052 3.36475 1.23003H1.86475"
          stroke="white" stroke-width="1.8" stroke-linecap="round" stroke-linejoin="round"/>
</svg>
