<svg width="30" height="30" viewBox="0 0 30 30" fill="none" xmlns="http://www.w3.org/2000/svg">
<path d="M10.1051 28.298C11.4398 28.298 12.5218 27.216 12.5218 25.8813C12.5218 24.5467 11.4398 23.4647 10.1051 23.4647C8.77045 23.4647 7.68848 24.5467 7.68848 25.8813C7.68848 27.216 8.77045 28.298 10.1051 28.298Z" stroke="#3F3F3F" stroke-width="2.8" stroke-linecap="round" stroke-linejoin="round"/>
<path d="M24.6051 28.298C25.9398 28.298 27.0218 27.216 27.0218 25.8813C27.0218 24.5467 25.9398 23.4647 24.6051 23.4647C23.2705 23.4647 22.1885 24.5467 22.1885 25.8813C22.1885 27.216 23.2705 28.298 24.6051 28.298Z" stroke="#3F3F3F" stroke-width="2.8" stroke-linecap="round" stroke-linejoin="round"/>
<path d="M7.28964 7.75635H28.2301L26.2001 17.8943C26.0896 18.4506 25.7869 18.9503 25.3451 19.306C24.9033 19.6616 24.3505 19.8505 23.7834 19.8397H11.0113C10.4213 19.8447 9.84977 19.6336 9.4046 19.2463C8.95942 18.859 8.67133 18.3222 8.59464 17.7372L6.75798 3.81718C6.68181 3.23626 6.3972 2.70279 5.9571 2.31603C5.51699 1.92927 4.95137 1.71557 4.36548 1.71468H1.64673" stroke="#3F3F3F" stroke-width="2.8" stroke-linecap="round" stroke-linejoin="round"/>
</svg>
