<svg width="278" height="57" viewBox="0 0 278 57" fill="none" xmlns="http://www.w3.org/2000/svg">
<path d="M33.1767 35.2771C33.1767 33.949 32.708 32.9334 31.7705 32.2303C30.833 31.5115 29.1455 30.7615 26.708 29.9803C24.2705 29.1834 22.3408 28.4021 20.9189 27.6365C17.0439 25.5428 15.1064 22.7225 15.1064 19.1756C15.1064 17.3318 15.622 15.6912 16.6533 14.2537C17.7001 12.8006 19.1923 11.6678 21.1298 10.8553C23.083 10.0428 25.2705 9.63652 27.6923 9.63652C30.1298 9.63652 32.3017 10.0818 34.208 10.9725C36.1142 11.8475 37.5908 13.0896 38.6376 14.699C39.7001 16.3084 40.2314 18.1365 40.2314 20.1834H33.2001C33.2001 18.6209 32.708 17.41 31.7236 16.5506C30.7392 15.6756 29.3564 15.2381 27.5751 15.2381C25.8564 15.2381 24.5205 15.6053 23.5673 16.3396C22.6142 17.0584 22.1376 18.0115 22.1376 19.199C22.1376 20.3084 22.6923 21.2381 23.8017 21.9881C24.9267 22.7381 26.5751 23.4412 28.747 24.0975C32.747 25.3006 35.6611 26.7928 37.4892 28.574C39.3173 30.3553 40.2314 32.574 40.2314 35.2303C40.2314 38.1834 39.1142 40.5037 36.8798 42.1912C34.6455 43.8631 31.6376 44.699 27.8564 44.699C25.2314 44.699 22.8408 44.2225 20.6845 43.2693C18.5283 42.3006 16.8798 40.9803 15.7392 39.3084C14.6142 37.6365 14.0517 35.699 14.0517 33.4959H21.1064C21.1064 37.2615 23.3564 39.1443 27.8564 39.1443C29.5283 39.1443 30.833 38.8084 31.7705 38.1365C32.708 37.449 33.1767 36.4959 33.1767 35.2771ZM73.0261 44.2303H65.9948V29.6053H52.2839V44.2303H45.2526V10.1053H52.2839V23.9334H65.9948V10.1053H73.0261V44.2303ZM107.461 27.9412C107.461 31.3006 106.868 34.2459 105.68 36.7771C104.493 39.3084 102.79 41.2615 100.571 42.6365C98.3676 44.0115 95.8364 44.699 92.977 44.699C90.1489 44.699 87.6255 44.0193 85.4067 42.66C83.188 41.3006 81.4692 39.3631 80.2505 36.8475C79.0317 34.3162 78.4145 31.41 78.3989 28.1287V26.4412C78.3989 23.0818 79.0005 20.1287 80.2036 17.5818C81.4223 15.0193 83.1333 13.0584 85.3364 11.699C87.5551 10.324 90.0864 9.63652 92.9301 9.63652C95.7739 9.63652 98.2973 10.324 100.5 11.699C102.719 13.0584 104.43 15.0193 105.633 17.5818C106.852 20.1287 107.461 23.074 107.461 26.4178V27.9412ZM100.336 26.3943C100.336 22.8162 99.6958 20.0975 98.4145 18.2381C97.1333 16.3787 95.3051 15.449 92.9301 15.449C90.5708 15.449 88.7505 16.3709 87.4692 18.2146C86.188 20.0428 85.5395 22.7303 85.5239 26.2771V27.9412C85.5239 31.4256 86.1645 34.1287 87.4458 36.0506C88.727 37.9725 90.5708 38.9334 92.977 38.9334C95.3364 38.9334 97.1489 38.0115 98.4145 36.1678C99.6801 34.3084 100.321 31.6053 100.336 28.0584V26.3943ZM133.342 29.4412H119.842V38.5818H135.686V44.2303H112.811V10.1053H135.639V15.8006H119.842V23.9334H133.342V29.4412ZM157.746 35.2771C157.746 33.949 157.277 32.9334 156.34 32.2303C155.402 31.5115 153.715 30.7615 151.277 29.9803C148.84 29.1834 146.91 28.4021 145.488 27.6365C141.613 25.5428 139.676 22.7225 139.676 19.1756C139.676 17.3318 140.191 15.6912 141.223 14.2537C142.27 12.8006 143.762 11.6678 145.699 10.8553C147.652 10.0428 149.84 9.63652 152.262 9.63652C154.699 9.63652 156.871 10.0818 158.777 10.9725C160.684 11.8475 162.16 13.0896 163.207 14.699C164.27 16.3084 164.801 18.1365 164.801 20.1834H157.77C157.77 18.6209 157.277 17.41 156.293 16.5506C155.309 15.6756 153.926 15.2381 152.145 15.2381C150.426 15.2381 149.09 15.6053 148.137 16.3396C147.184 17.0584 146.707 18.0115 146.707 19.199C146.707 20.3084 147.262 21.2381 148.371 21.9881C149.496 22.7381 151.145 23.4412 153.316 24.0975C157.316 25.3006 160.23 26.7928 162.059 28.574C163.887 30.3553 164.801 32.574 164.801 35.2303C164.801 38.1834 163.684 40.5037 161.449 42.1912C159.215 43.8631 156.207 44.699 152.426 44.699C149.801 44.699 147.41 44.2225 145.254 43.2693C143.098 42.3006 141.449 40.9803 140.309 39.3084C139.184 37.6365 138.621 35.699 138.621 33.4959H145.676C145.676 37.2615 147.926 39.1443 152.426 39.1443C154.098 39.1443 155.402 38.8084 156.34 38.1365C157.277 37.449 157.746 36.4959 157.746 35.2771Z" fill="black"/>
<line x1="176.561" y1="9.06453" x2="176.561" y2="52.396" stroke="#AAAAAA"/>
<path d="M193.563 23.2771V33.2303H192.25V24.3572H188.682L188.504 28.3016C188.436 29.6232 188.299 30.6167 188.094 31.282C187.894 31.9474 187.597 32.4373 187.206 32.7518C186.814 33.0617 186.29 33.2212 185.633 33.2303H185.203V32.157L185.476 32.1434C185.9 32.1115 186.226 31.9747 186.454 31.7332C186.681 31.4871 186.855 31.0975 186.973 30.5643C187.092 30.0311 187.176 29.2107 187.226 28.1033L187.431 23.2771H193.563ZM198.17 31.3777L199.893 25.8338H201.247L198.273 34.3719C197.813 35.6023 197.081 36.2176 196.079 36.2176L195.839 36.1971L195.368 36.1082V35.0828L195.709 35.1102C196.138 35.1102 196.471 35.0236 196.707 34.8504C196.949 34.6772 197.147 34.3605 197.302 33.9002L197.582 33.1482L194.944 25.8338H196.325L198.17 31.3777ZM207.966 33.2303H206.695V30.5506C206.139 30.6964 205.569 30.7693 204.986 30.7693C204.061 30.7693 203.354 30.5324 202.867 30.0584C202.384 29.5844 202.138 28.91 202.128 28.035V25.827H203.393V28.076C203.416 29.1788 203.947 29.7303 204.986 29.7303C205.569 29.7303 206.139 29.6574 206.695 29.5115V25.8338H207.966V33.2303ZM211.377 25.8338V32.198H214.084V25.8338H215.349V32.198H218.049V25.8338H219.321V33.2303H210.106V25.8338H211.377ZM225.883 33.2303C225.81 33.0844 225.751 32.8247 225.706 32.451C225.118 33.0617 224.416 33.367 223.6 33.367C222.871 33.367 222.272 33.1619 221.802 32.7518C221.337 32.337 221.105 31.813 221.105 31.1795C221.105 30.4093 221.397 29.8123 221.98 29.3885C222.568 28.9601 223.393 28.7459 224.455 28.7459H225.685V28.1648C225.685 27.7228 225.553 27.3719 225.289 27.1121C225.024 26.8478 224.635 26.7156 224.12 26.7156C223.668 26.7156 223.29 26.8296 222.985 27.0574C222.679 27.2853 222.527 27.561 222.527 27.8846H221.255C221.255 27.5154 221.385 27.16 221.645 26.8182C221.909 26.4718 222.265 26.1984 222.711 25.9978C223.163 25.7973 223.657 25.6971 224.195 25.6971C225.047 25.6971 225.715 25.9113 226.198 26.3396C226.681 26.7635 226.931 27.3491 226.95 28.0965V31.5008C226.95 32.1798 227.036 32.7199 227.209 33.1209V33.2303H225.883ZM223.785 32.2664C224.181 32.2664 224.557 32.1639 224.913 31.9588C225.268 31.7537 225.526 31.4871 225.685 31.159V29.6414H224.694C223.144 29.6414 222.37 30.0949 222.37 31.0018C222.37 31.3982 222.502 31.7081 222.766 31.9314C223.03 32.1547 223.37 32.2664 223.785 32.2664ZM234.585 25.8338V33.2303H233.314V30.3523H231.407L229.664 33.2303H228.296L230.156 30.1609C229.682 29.9878 229.317 29.7212 229.062 29.3611C228.811 28.9965 228.686 28.5727 228.686 28.0896C228.686 27.4152 228.939 26.8728 229.445 26.4627C229.951 26.048 230.627 25.8383 231.475 25.8338H234.585ZM229.957 28.1033C229.957 28.4633 230.081 28.755 230.327 28.9783C230.573 29.1971 230.899 29.3087 231.304 29.3133H233.314V26.8592H231.496C231.026 26.8592 230.652 26.9754 230.374 27.2078C230.096 27.4357 229.957 27.7342 229.957 28.1033ZM239.753 29.4637C239.753 28.7391 239.895 28.0874 240.177 27.5086C240.464 26.9298 240.861 26.4832 241.367 26.1687C241.877 25.8543 242.458 25.6971 243.11 25.6971C244.117 25.6971 244.93 26.0457 245.55 26.743C246.175 27.4402 246.487 28.3676 246.487 29.5252V29.6141C246.487 30.3341 246.348 30.9812 246.07 31.5555C245.796 32.1251 245.402 32.5695 244.887 32.8885C244.377 33.2075 243.789 33.367 243.124 33.367C242.121 33.367 241.307 33.0184 240.683 32.3211C240.063 31.6238 239.753 30.701 239.753 29.5525V29.4637ZM241.025 29.6141C241.025 30.4344 241.214 31.0929 241.592 31.5896C241.975 32.0864 242.485 32.3348 243.124 32.3348C243.766 32.3348 244.276 32.0841 244.655 31.5828C245.033 31.077 245.222 30.3706 245.222 29.4637C245.222 28.6525 245.028 27.9962 244.641 27.4949C244.258 26.9891 243.748 26.7361 243.11 26.7361C242.485 26.7361 241.982 26.9845 241.599 27.4812C241.216 27.978 241.025 28.6889 241.025 29.6141ZM251.32 26.2576C252.249 26.2576 252.992 26.5698 253.548 27.1941C254.109 27.8139 254.389 28.632 254.389 29.6482V29.7645C254.389 30.4617 254.255 31.0861 253.986 31.6375C253.717 32.1844 253.33 32.6105 252.824 32.9158C252.322 33.2166 251.744 33.367 251.087 33.367C250.094 33.367 249.294 33.0366 248.688 32.3758C248.082 31.7104 247.779 30.8195 247.779 29.7029V29.0877C247.779 27.5337 248.066 26.2986 248.64 25.3826C249.219 24.4666 250.071 23.9083 251.197 23.7078C251.835 23.5939 252.265 23.4549 252.489 23.2908C252.712 23.1268 252.824 22.9012 252.824 22.6141H253.863C253.863 23.1837 253.733 23.6281 253.473 23.9471C253.218 24.2661 252.808 24.4917 252.243 24.6238L251.299 24.8357C250.547 25.0135 249.982 25.3143 249.604 25.7381C249.23 26.1574 248.986 26.7179 248.873 27.4197C249.542 26.645 250.358 26.2576 251.32 26.2576ZM251.074 27.2967C250.454 27.2967 249.962 27.5063 249.597 27.9256C249.233 28.3403 249.05 28.9168 249.05 29.6551V29.7645C249.05 30.5574 249.233 31.1863 249.597 31.6512C249.966 32.1115 250.463 32.3416 251.087 32.3416C251.716 32.3416 252.213 32.1092 252.578 31.6443C252.942 31.1795 253.124 30.5005 253.124 29.6072C253.124 28.91 252.94 28.3517 252.571 27.9324C252.206 27.5086 251.707 27.2967 251.074 27.2967ZM258.231 31.3777L259.954 25.8338H261.307L258.333 34.3719C257.873 35.6023 257.142 36.2176 256.139 36.2176L255.9 36.1971L255.428 36.1082V35.0828L255.77 35.1102C256.198 35.1102 256.531 35.0236 256.768 34.8504C257.01 34.6772 257.208 34.3605 257.363 33.9002L257.643 33.1482L255.004 25.8338H256.385L258.231 31.3777ZM262.558 33.2303V25.8338H265.443C266.427 25.8338 267.181 26.007 267.706 26.3533C268.234 26.6951 268.499 27.1987 268.499 27.8641C268.499 28.2059 268.396 28.5158 268.191 28.7937C267.986 29.0672 267.683 29.2768 267.282 29.4227C267.728 29.5275 268.086 29.7325 268.355 30.0379C268.628 30.3432 268.765 30.7078 268.765 31.1316C268.765 31.8107 268.514 32.3302 268.013 32.6902C267.516 33.0503 266.812 33.2303 265.901 33.2303H262.558ZM263.823 29.9832V32.2117H265.915C266.443 32.2117 266.837 32.1137 267.097 31.9178C267.361 31.7218 267.494 31.4461 267.494 31.0906C267.494 30.3523 266.951 29.9832 265.867 29.9832H263.823ZM263.823 28.9715H265.457C266.641 28.9715 267.234 28.6251 267.234 27.9324C267.234 27.2397 266.673 26.882 265.552 26.8592H263.823V28.9715ZM271.821 28.3836H273.742C274.58 28.3927 275.243 28.6115 275.731 29.0398C276.219 29.4682 276.462 30.0493 276.462 30.783C276.462 31.5213 276.212 32.1137 275.71 32.5603C275.209 33.007 274.535 33.2303 273.687 33.2303H270.556V25.8338H271.821V28.3836ZM271.821 29.4158V32.198H273.701C274.175 32.198 274.541 32.0773 274.801 31.8357C275.061 31.5896 275.191 31.2547 275.191 30.8309C275.191 30.4207 275.063 30.0857 274.808 29.826C274.557 29.5617 274.204 29.4249 273.749 29.4158H271.821Z" fill="black"/>
</svg>
