<svg width="21" height="21" viewBox="0 0 21 21" fill="none" xmlns="http://www.w3.org/2000/svg">
<path d="M3.104 5.7774H4.77067H18.104" stroke="#B6B6B6" stroke-width="1.2" stroke-linecap="round" stroke-linejoin="round"/>
<path d="M7.27075 5.77741V4.11074C7.27075 3.66871 7.44635 3.24479 7.75891 2.93223C8.07147 2.61967 8.49539 2.44407 8.93742 2.44407H12.2708C12.7128 2.44407 13.1367 2.61967 13.4493 2.93223C13.7618 3.24479 13.9374 3.66871 13.9374 4.11074V5.77741M16.4374 5.77741V17.4441C16.4374 17.8861 16.2618 18.31 15.9493 18.6226C15.6367 18.9351 15.2128 19.1107 14.7708 19.1107H6.43742C5.99539 19.1107 5.57147 18.9351 5.25891 18.6226C4.94635 18.31 4.77075 17.8861 4.77075 17.4441V5.77741H16.4374Z" stroke="#B6B6B6" stroke-width="1.2" stroke-linecap="round" stroke-linejoin="round"/>
<path d="M8.93726 9.94407V14.9441" stroke="#B6B6B6" stroke-width="1.2" stroke-linecap="round" stroke-linejoin="round"/>
<path d="M12.2708 9.94407V14.9441" stroke="#B6B6B6" stroke-width="1.2" stroke-linecap="round" stroke-linejoin="round"/>
</svg>
